{
    "asset" : {
        "generator" : "Khronos glTF Blender I/O v1.3.28",
        "version" : "2.0"
    },
    "scene" : 0,
    "scenes" : [
        {
            "name" : "Scene",
            "nodes" : [
                6
            ]
        }
    ],
    "nodes" : [
        {
            "mesh" : 0,
            "name" : "booster",
            "translation" : [
                0,
                -7.62939453125e-06,
                0
            ]
        },
        {
            "mesh" : 1,
            "name" : "fins",
            "translation" : [
                0,
                -7.62939453125e-06,
                0
            ]
        },
        {
            "mesh" : 2,
            "name" : "Text",
            "rotation" : [
                0.5000001192092896,
                -0.5000000596046448,
                -0.4999999701976776,
                0.5
            ],
            "translation" : [
                -0.5009444355964661,
                -26.449771881103516,
                1.80484938621521
            ]
        },
        {
            "mesh" : 3,
            "name" : "Text.001",
            "rotation" : [
                0.5,
                0.5,
                -0.5000000596046448,
                0.4999999701976776
            ],
            "translation" : [
                1.496274709701538,
                -16.35065460205078,
                0.8916950821876526
            ]
        },
        {
            "mesh" : 4,
            "name" : "thrust",
            "translation" : [
                0,
                -7.62939453125e-06,
                0
            ]
        },
        {
            "mesh" : 5,
            "name" : "upper-ring",
            "translation" : [
                0,
                -7.62939453125e-06,
                0
            ]
        },
        {
            "children" : [
                0,
                1,
                2,
                3,
                4,
                5
            ],
            "mesh" : 6,
            "name" : "Cylinder",
            "rotation" : [
                0,
                -0.5294820666313171,
                0,
                -0.8483211398124695
            ],
            "scale" : [
                0.09121791273355484,
                0.09121791273355484,
                0.09121791273355484
            ],
            "translation" : [
                0,
                5.885026931762695,
                0
            ]
        }
    ],
    "materials" : [
        {
            "doubleSided" : true,
            "emissiveFactor" : [
                0,
                0,
                0
            ],
            "name" : "fins",
            "pbrMetallicRoughness" : {
                "baseColorFactor" : [
                    0.006554562598466873,
                    0.006554562598466873,
                    0.006554562598466873,
                    1
                ],
                "metallicFactor" : 0,
                "roughnessFactor" : 0.08715596795082092
            }
        },
        {
            "doubleSided" : true,
            "emissiveFactor" : [
                0,
                0,
                0
            ],
            "name" : "Material.002",
            "pbrMetallicRoughness" : {
                "baseColorFactor" : [
                    0.0008274228894151747,
                    0.0008274228894151747,
                    0.0008274228894151747,
                    1
                ],
                "metallicFactor" : 0,
                "roughnessFactor" : 0.5
            }
        },
        {
            "doubleSided" : true,
            "emissiveFactor" : [
                0,
                0,
                0
            ],
            "name" : "Material.003",
            "pbrMetallicRoughness" : {
                "baseColorFactor" : [
                    0.0012413235381245613,
                    0.0012413235381245613,
                    0.0012413235381245613,
                    1
                ],
                "metallicFactor" : 0,
                "roughnessFactor" : 0.5
            }
        },
        {
            "doubleSided" : true,
            "emissiveFactor" : [
                0,
                0,
                0
            ],
            "name" : "Material.001",
            "pbrMetallicRoughness" : {
                "baseColorFactor" : [
                    0.800000011920929,
                    0.800000011920929,
                    0.800000011920929,
                    1
                ],
                "metallicFactor" : 0,
                "roughnessFactor" : 0.05045872926712036
            }
        }
    ],
    "meshes" : [
        {
            "name" : "Cylinder.002",
            "primitives" : [
                {
                    "attributes" : {
                        "POSITION" : 0,
                        "NORMAL" : 1,
                        "TEXCOORD_0" : 2
                    },
                    "indices" : 3,
                    "material" : 0
                }
            ]
        },
        {
            "name" : "Cylinder.001",
            "primitives" : [
                {
                    "attributes" : {
                        "POSITION" : 4,
                        "NORMAL" : 5,
                        "TEXCOORD_0" : 6
                    },
                    "indices" : 7,
                    "material" : 0
                }
            ]
        },
        {
            "name" : "Text",
            "primitives" : [
                {
                    "attributes" : {
                        "POSITION" : 8,
                        "NORMAL" : 9,
                        "TEXCOORD_0" : 10
                    },
                    "indices" : 11,
                    "material" : 1
                }
            ]
        },
        {
            "name" : "Text.001",
            "primitives" : [
                {
                    "attributes" : {
                        "POSITION" : 12,
                        "NORMAL" : 13,
                        "TEXCOORD_0" : 14
                    },
                    "indices" : 15,
                    "material" : 2
                }
            ]
        },
        {
            "name" : "Cylinder.003",
            "primitives" : [
                {
                    "attributes" : {
                        "POSITION" : 16,
                        "NORMAL" : 17,
                        "TEXCOORD_0" : 18
                    },
                    "indices" : 19,
                    "material" : 0
                }
            ]
        },
        {
            "name" : "Cylinder.004",
            "primitives" : [
                {
                    "attributes" : {
                        "POSITION" : 20,
                        "NORMAL" : 21,
                        "TEXCOORD_0" : 22
                    },
                    "indices" : 23,
                    "material" : 0
                }
            ]
        },
        {
            "name" : "Cylinder",
            "primitives" : [
                {
                    "attributes" : {
                        "POSITION" : 24,
                        "NORMAL" : 25,
                        "TEXCOORD_0" : 26
                    },
                    "indices" : 27,
                    "material" : 3
                }
            ]
        }
    ],
    "accessors" : [
        {
            "bufferView" : 0,
            "componentType" : 5126,
            "count" : 34,
            "max" : [
                1.7445167303085327,
                -8.31693172454834,
                1.744516134262085
            ],
            "min" : [
                -1.7445168495178223,
                -14.971240043640137,
                -1.744516134262085
            ],
            "type" : "VEC3"
        },
        {
            "bufferView" : 1,
            "componentType" : 5126,
            "count" : 34,
            "type" : "VEC3"
        },
        {
            "bufferView" : 2,
            "componentType" : 5126,
            "count" : 34,
            "type" : "VEC2"
        },
        {
            "bufferView" : 3,
            "componentType" : 5123,
            "count" : 96,
            "type" : "SCALAR"
        },
        {
            "bufferView" : 4,
            "componentType" : 5126,
            "count" : 80,
            "max" : [
                2.952291488647461,
                -47.876487731933594,
                2.952317953109741
            ],
            "min" : [
                -2.952343225479126,
                -59.27184295654297,
                -2.952317476272583
            ],
            "type" : "VEC3"
        },
        {
            "bufferView" : 5,
            "componentType" : 5126,
            "count" : 80,
            "type" : "VEC3"
        },
        {
            "bufferView" : 6,
            "componentType" : 5126,
            "count" : 80,
            "type" : "VEC2"
        },
        {
            "bufferView" : 7,
            "componentType" : 5123,
            "count" : 96,
            "type" : "SCALAR"
        },
        {
            "bufferView" : 8,
            "componentType" : 5126,
            "count" : 8842,
            "max" : [
                7.407986164093018,
                -0.0378972552716732,
                0.6028374433517456
            ],
            "min" : [
                0.1312900334596634,
                -1.5463353395462036,
                -1.708854079246521
            ],
            "type" : "VEC3"
        },
        {
            "bufferView" : 9,
            "componentType" : 5126,
            "count" : 8842,
            "type" : "VEC3"
        },
        {
            "bufferView" : 10,
            "componentType" : 5126,
            "count" : 8842,
            "type" : "VEC2"
        },
        {
            "bufferView" : 11,
            "componentType" : 5123,
            "count" : 10392,
            "type" : "SCALAR"
        },
        {
            "bufferView" : 12,
            "componentType" : 5126,
            "count" : 993,
            "max" : [
                1.1351999044418335,
                0.25999999046325684,
                0.034695666283369064
            ],
            "min" : [
                0.04764002561569214,
                -0.25999999046325684,
                -0.6350371837615967
            ],
            "type" : "VEC3"
        },
        {
            "bufferView" : 13,
            "componentType" : 5126,
            "count" : 993,
            "type" : "VEC3"
        },
        {
            "bufferView" : 14,
            "componentType" : 5126,
            "count" : 993,
            "type" : "VEC2"
        },
        {
            "bufferView" : 15,
            "componentType" : 5123,
            "count" : 1764,
            "type" : "SCALAR"
        },
        {
            "bufferView" : 16,
            "componentType" : 5126,
            "count" : 32,
            "max" : [
                3.14054274559021,
                -59.25630187988281,
                3.140244245529175
            ],
            "min" : [
                -3.1327991485595703,
                -61.08207702636719,
                -3.123913526535034
            ],
            "type" : "VEC3"
        },
        {
            "bufferView" : 17,
            "componentType" : 5126,
            "count" : 32,
            "type" : "VEC3"
        },
        {
            "bufferView" : 18,
            "componentType" : 5126,
            "count" : 32,
            "type" : "VEC2"
        },
        {
            "bufferView" : 19,
            "componentType" : 5123,
            "count" : 96,
            "type" : "SCALAR"
        },
        {
            "bufferView" : 20,
            "componentType" : 5126,
            "count" : 96,
            "max" : [
                1.2613675594329834,
                -1.8458034992218018,
                1.2613675594329834
            ],
            "min" : [
                -1.2613674402236938,
                -2.028899908065796,
                -1.2613675594329834
            ],
            "type" : "VEC3"
        },
        {
            "bufferView" : 21,
            "componentType" : 5126,
            "count" : 96,
            "type" : "VEC3"
        },
        {
            "bufferView" : 22,
            "componentType" : 5126,
            "count" : 96,
            "type" : "VEC2"
        },
        {
            "bufferView" : 23,
            "componentType" : 5123,
            "count" : 96,
            "type" : "SCALAR"
        },
        {
            "bufferView" : 24,
            "componentType" : 5126,
            "count" : 550,
            "max" : [
                3.14054274559021,
                4.397458553314209,
                3.140244245529175
            ],
            "min" : [
                -3.1327991485595703,
                -61.60060501098633,
                -3.123913526535034
            ],
            "type" : "VEC3"
        },
        {
            "bufferView" : 25,
            "componentType" : 5126,
            "count" : 550,
            "type" : "VEC3"
        },
        {
            "bufferView" : 26,
            "componentType" : 5126,
            "count" : 550,
            "type" : "VEC2"
        },
        {
            "bufferView" : 27,
            "componentType" : 5123,
            "count" : 1470,
            "type" : "SCALAR"
        }
    ],
    "bufferViews" : [
        {
            "buffer" : 0,
            "byteLength" : 408,
            "byteOffset" : 0
        },
        {
            "buffer" : 0,
            "byteLength" : 408,
            "byteOffset" : 408
        },
        {
            "buffer" : 0,
            "byteLength" : 272,
            "byteOffset" : 816
        },
        {
            "buffer" : 0,
            "byteLength" : 192,
            "byteOffset" : 1088
        },
        {
            "buffer" : 0,
            "byteLength" : 960,
            "byteOffset" : 1280
        },
        {
            "buffer" : 0,
            "byteLength" : 960,
            "byteOffset" : 2240
        },
        {
            "buffer" : 0,
            "byteLength" : 640,
            "byteOffset" : 3200
        },
        {
            "buffer" : 0,
            "byteLength" : 192,
            "byteOffset" : 3840
        },
        {
            "buffer" : 0,
            "byteLength" : 106104,
            "byteOffset" : 4032
        },
        {
            "buffer" : 0,
            "byteLength" : 106104,
            "byteOffset" : 110136
        },
        {
            "buffer" : 0,
            "byteLength" : 70736,
            "byteOffset" : 216240
        },
        {
            "buffer" : 0,
            "byteLength" : 20784,
            "byteOffset" : 286976
        },
        {
            "buffer" : 0,
            "byteLength" : 11916,
            "byteOffset" : 307760
        },
        {
            "buffer" : 0,
            "byteLength" : 11916,
            "byteOffset" : 319676
        },
        {
            "buffer" : 0,
            "byteLength" : 7944,
            "byteOffset" : 331592
        },
        {
            "buffer" : 0,
            "byteLength" : 3528,
            "byteOffset" : 339536
        },
        {
            "buffer" : 0,
            "byteLength" : 384,
            "byteOffset" : 343064
        },
        {
            "buffer" : 0,
            "byteLength" : 384,
            "byteOffset" : 343448
        },
        {
            "buffer" : 0,
            "byteLength" : 256,
            "byteOffset" : 343832
        },
        {
            "buffer" : 0,
            "byteLength" : 192,
            "byteOffset" : 344088
        },
        {
            "buffer" : 0,
            "byteLength" : 1152,
            "byteOffset" : 344280
        },
        {
            "buffer" : 0,
            "byteLength" : 1152,
            "byteOffset" : 345432
        },
        {
            "buffer" : 0,
            "byteLength" : 768,
            "byteOffset" : 346584
        },
        {
            "buffer" : 0,
            "byteLength" : 192,
            "byteOffset" : 347352
        },
        {
            "buffer" : 0,
            "byteLength" : 6600,
            "byteOffset" : 347544
        },
        {
            "buffer" : 0,
            "byteLength" : 6600,
            "byteOffset" : 354144
        },
        {
            "buffer" : 0,
            "byteLength" : 4400,
            "byteOffset" : 360744
        },
        {
            "buffer" : 0,
            "byteLength" : 2940,
            "byteOffset" : 365144
        }
    ],
    "buffers" : [
        {
            "byteLength" : 368084,
            "uri" : "data:application/octet-stream;base64,"
        }
    ]
}
